<svg id="Layer_1" data-name="Layer 1" xmlns="http://www.w3.org/2000/svg" viewBox="0 0 276.8627 81.9792">
  <g>
    <path id="fullLogo" d="M179.7507,10.533l.3757,13.6775h-7.5916V0h10.6471l4.3816,13.0292h.1711L191.5345,0h10.9894V24.2105h-7.9324L194.8308,10.6l-.2059-.0334-4.5138,13.6441H184.366L179.92,10.533Z" style="fill: #fff"/>
    <path id="fullLogo-2" data-name="fullLogo" d="M213.7387,0H222.39l9.438,24.2105h-8.8563l-1.2648-3.5564h-7.6945l-1.1967,3.5564h-8.617Zm4.2062,8.4459-1.9828,5.9858h3.9322Z" style="fill: #fff"/>
    <path id="fullLogo-3" data-name="fullLogo" d="M241.5056,14.5681h-.0681v9.6424h-7.8991V0h7.8643V8.9245h.0695L247.9353,0H257.51L248.414,11.0784l9.54,13.1321h-9.9848Z" style="fill: #fff"/>
    <path id="fullLogo-4" data-name="fullLogo" d="M259.6287,0h16.6538V6.7706h-8.994V8.8577h8.4458v6.3254h-8.4458V17.44h9.5742v6.7706h-17.234Z" style="fill: #fff"/>
    <path id="fullLogo-5" data-name="fullLogo" d="M183.4087,53.3912a14.1141,14.1141,0,0,1-4.9409-.7876,9.8779,9.8779,0,0,1-3.505-2.1539,8.5877,8.5877,0,0,1-2.0857-3.2308,11.5728,11.5728,0,0,1-.6846-4.0184V28.4961h8.1384V42.31a4.0408,4.0408,0,0,0,.8376,2.7188,3.3812,3.3812,0,0,0,4.7545,0,4.0408,4.0408,0,0,0,.8376-2.7188V28.4961h8.1036V43.2005a10.8659,10.8659,0,0,1-.7347,4.0184,8.9692,8.9692,0,0,1-2.172,3.2308,10.184,10.184,0,0,1-3.5731,2.1539A14.4067,14.4067,0,0,1,183.4087,53.3912Z" style="fill: #fff"/>
    <path id="fullLogo-6" data-name="fullLogo" d="M206.9694,53.3912a16.3337,16.3337,0,0,1-2.89-.256,15.6788,15.6788,0,0,1-2.7355-.7486,17.2973,17.2973,0,0,1-2.48-1.1549,12.542,12.542,0,0,1-2.0857-1.48l4.9589-5.3876a7.9476,7.9476,0,0,0,2.2736,1.6419,6.4024,6.4024,0,0,0,2.9234.7179,3.13,3.13,0,0,0,1.2481-.2421.8844.8844,0,0,0,.5649-.8905.9173.9173,0,0,0-.1893-.5816,2.1333,2.1333,0,0,0-.6664-.4953,10.1753,10.1753,0,0,0-1.3163-.5649q-.8391-.309-2.1024-.7208a17.5935,17.5935,0,0,1-2.36-.9767,8.2976,8.2976,0,0,1-2.0008-1.3859,6.0888,6.0888,0,0,1-1.3845-1.97,6.72,6.72,0,0,1-.5134-2.7578,7.4643,7.4643,0,0,1,.9239-3.8375,8.0716,8.0716,0,0,1,2.3765-2.5853,9.7439,9.7439,0,0,1,3.2657-1.4581,15.0912,15.0912,0,0,1,3.59-.4453,13.9145,13.9145,0,0,1,4.8727.9239,13.014,13.014,0,0,1,4.3607,2.6687l-5.0606,5.1622a5.2984,5.2984,0,0,0-2.0175-1.5556,5.41,5.41,0,0,0-2.1553-.5316,3.3818,3.3818,0,0,0-1.4359.2588.8663.8663,0,0,0-.5469.8377.8778.8778,0,0,0,.5636.8209,16.0341,16.0341,0,0,0,1.83.6818q1.3.4133,2.7355.9573a11.8143,11.8143,0,0,1,2.6506,1.4192,7.4748,7.4748,0,0,1,2.0009,2.1372,5.8748,5.8748,0,0,1,.7861,3.1474,7.9419,7.9419,0,0,1-.8724,3.8125,8.2521,8.2521,0,0,1-2.29,2.7021,9.9618,9.9618,0,0,1-3.1974,1.6057A12.6285,12.6285,0,0,1,206.9694,53.3912Z" style="fill: #fff"/>
    <path id="fullLogo-7" data-name="fullLogo" d="M220.1336,28.4961h16.6538v6.7706h-8.9941v2.0871h8.4458v6.3253h-8.4458V45.936h9.5743v6.7706h-17.234Z" style="fill: #fff"/>
    <path id="fullLogo-8" data-name="fullLogo" d="M171.4412,68.9611a12.9387,12.9387,0,0,1,1.0255-5.2484,11.6536,11.6536,0,0,1,2.82-3.985,12.5547,12.5547,0,0,1,4.2578-2.53,16.4242,16.4242,0,0,1,10.6693,0,12.7523,12.7523,0,0,1,4.2744,2.53,11.5712,11.5712,0,0,1,2.8385,3.985,12.9621,12.9621,0,0,1,1.0254,5.2484,13.345,13.345,0,0,1-1.0254,5.3012,12,12,0,0,1-2.8385,4.0852,12.7685,12.7685,0,0,1-4.2744,2.6159,15.8632,15.8632,0,0,1-10.6693,0,12.5715,12.5715,0,0,1-4.2578-2.6159,12.09,12.09,0,0,1-2.82-4.0852A13.3207,13.3207,0,0,1,171.4412,68.9611Zm8.65,0a6.3709,6.3709,0,0,0,.359,2.1873,5.2651,5.2651,0,0,0,.992,1.7114,4.3241,4.3241,0,0,0,1.5222,1.11,4.6855,4.6855,0,0,0,1.9146.3924A4.517,4.517,0,0,0,188.3,72.86a5.109,5.109,0,0,0,1.0088-1.7114,6.3733,6.3733,0,0,0,.359-2.1873,6.13,6.13,0,0,0-.359-2.1373A4.5883,4.5883,0,0,0,188.3,65.182a4.6928,4.6928,0,0,0-3.42-1.4193,4.8659,4.8659,0,0,0-1.9146.3757,4.4841,4.4841,0,0,0-1.5222,1.0436,4.7168,4.7168,0,0,0-.992,1.6418A6.1275,6.1275,0,0,0,180.0916,68.9611Z" style="fill: #fff"/>
    <path id="fullLogo-9" data-name="fullLogo" d="M209.7384,66.3285h7.3869v6.6676h-7.3522v8.2066h-8.002V56.9921H218.116v6.804h-8.3776Z" style="fill: #fff"/>
    <path id="fullLogo-10" data-name="fullLogo" d="M220.0871,76.4676h17.0977v5.42H220.0871Z" style="fill: #c60d0d"/>
    <polygon id="fullLogo-11" data-name="fullLogo" points="33.421 0.136 0 33.557 0 81.752 130.67 81.752 164 48.422 164 0.136 33.421 0.136" style="fill: #c60d0d"/>
    <polygon id="fullLogo-12" data-name="fullLogo" points="140.289 81.979 164.126 81.979 164.126 58.142 140.289 81.979" style="fill: #c60d0d"/>
    <path id="fullLogo-13" data-name="fullLogo" d="M63.9715,56.19a2.0146,2.0146,0,0,1-2.15-2.15V37.5685a4.0417,4.0417,0,0,1,.91-2.5829l.8964-1.12.08-.0894c.3966-.3966.71-.71,1.2159-.71.2186,0,1.3094.082,1.3094,1.7015V54.04A2.0689,2.0689,0,0,1,63.9715,56.19Zm-28.1813,0a2.0146,2.0146,0,0,1-2.15-2.15V26.98a2.0145,2.0145,0,0,1,2.15-2.15,4.0793,4.0793,0,0,1,3.18,1.502L50.177,39.9374l11.0984-13.86a3.2114,3.2114,0,0,1,2.584-1.2474h1.12a1.2259,1.2259,0,0,1,1.2535,1.2536,1.3173,1.3173,0,0,1-.3134.87l-13.4832,16.84a2.96,2.96,0,0,1-2.2479,1.3035,3.0324,3.0324,0,0,1-2.2178-1.2676L38.052,31.8426V54.04A2.0689,2.0689,0,0,1,35.79,56.19Z" style="fill: #fff"/>
    <path id="fullLogo-14" data-name="fullLogo" d="M72.2684,55.91a3.436,3.436,0,0,1-3.7746-3.7747V26.7a2.0687,2.0687,0,0,1,2.2617-2.15,2.0145,2.0145,0,0,1,2.15,2.15v24.967h20.52V26.7a2.069,2.069,0,0,1,2.262-2.15A2.0143,2.0143,0,0,1,97.837,26.7V52.1355a3.4617,3.4617,0,0,1-3.83,3.7747Z" style="fill: #fff"/>
    <path id="fullLogo-15" data-name="fullLogo" d="M103.7821,55.91a3.436,3.436,0,0,1-3.7746-3.7747V28.6048a3.436,3.436,0,0,1,3.7746-3.7748h22.8026a3.436,3.436,0,0,1,3.7746,3.7748V52.1355a3.436,3.436,0,0,1-3.7746,3.7747Zm22.1654-4.2434V29.0734H104.4191V51.6668Z" style="fill: #fff"/>
  </g>
</svg>
